<svg xmlns="http://www.w3.org/2000/svg" xmlns:xlink="http://www.w3.org/1999/xlink" contentStyleType="text/css" height="1388px" preserveAspectRatio="none" style="width:1584px;height:1388px;background:#FFFFFF;" version="1.1" viewBox="0 0 1584 1388" width="1584px" zoomAndPan="magnify"><title>Saberu VPS Takeover &#8212; Onboard &#8594; Managed &#8594; Re-Audit &#8212; TARGET (as-designed)</title><defs/><g><text fill="#000000" font-family="sans-serif" font-size="14" font-weight="bold" lengthAdjust="spacing" textLength="644.041" x="466.2253" y="27.9951">Saberu VPS Takeover &#8212; Onboard &#8594; Managed &#8594; Re-Audit &#8212; TARGET (as-designed)</text><rect fill="#FFFFFF" height="308.7266" style="stroke:#181818;stroke-width:1.0;" width="10" x="746.9468" y="450.4844"/><rect fill="#FFFFFF" height="87.3984" style="stroke:#181818;stroke-width:1.0;" width="10" x="746.9468" y="977.1406"/><line style="stroke:#181818;stroke-width:0.5;stroke-dasharray:5.0,5.0;" x1="39" x2="39" y1="120.8906" y2="1293.6016"/><line style="stroke:#181818;stroke-width:0.5;stroke-dasharray:5.0,5.0;" x1="344.5537" x2="344.5537" y1="120.8906" y2="1293.6016"/><line style="stroke:#181818;stroke-width:0.5;stroke-dasharray:5.0,5.0;" x1="603.2866" x2="603.2866" y1="120.8906" y2="1293.6016"/><line style="stroke:#181818;stroke-width:0.5;stroke-dasharray:5.0,5.0;" x1="751.396" x2="751.396" y1="120.8906" y2="1293.6016"/><line style="stroke:#181818;stroke-width:0.5;stroke-dasharray:5.0,5.0;" x1="1093.0581" x2="1093.0581" y1="120.8906" y2="1293.6016"/><line style="stroke:#181818;stroke-width:0.5;stroke-dasharray:5.0,5.0;" x1="1267.9272" x2="1267.9272" y1="120.8906" y2="1293.6016"/><line style="stroke:#181818;stroke-width:0.5;stroke-dasharray:5.0,5.0;" x1="1469.2222" x2="1469.2222" y1="120.8906" y2="1293.6016"/><text fill="#000000" font-family="sans-serif" font-size="14" lengthAdjust="spacing" textLength="62.665" x="5" y="117.5889">Operator</text><ellipse cx="39.3325" cy="53.0938" fill="#E2E2F0" rx="8" ry="8" style="stroke:#181818;stroke-width:0.5;"/><path d="M39.3325,61.0938 L39.3325,88.0938 M26.3325,69.0938 L52.3325,69.0938 M39.3325,88.0938 L26.3325,103.0938 M39.3325,88.0938 L52.3325,103.0938 " fill="none" style="stroke:#181818;stroke-width:0.5;"/><text fill="#000000" font-family="sans-serif" font-size="14" lengthAdjust="spacing" textLength="62.665" x="5" y="1305.5967">Operator</text><ellipse cx="39.3325" cy="1317.3984" fill="#E2E2F0" rx="8" ry="8" style="stroke:#181818;stroke-width:0.5;"/><path d="M39.3325,1325.3984 L39.3325,1352.3984 M26.3325,1333.3984 L52.3325,1333.3984 M39.3325,1352.3984 L26.3325,1367.3984 M39.3325,1352.3984 L52.3325,1367.3984 " fill="none" style="stroke:#181818;stroke-width:0.5;"/><rect fill="#E2E2F0" height="46.5938" rx="2.5" ry="2.5" style="stroke:#181818;stroke-width:0.5;" width="117.0518" x="286.5537" y="73.2969"/><text fill="#000000" font-family="sans-serif" font-size="14" lengthAdjust="spacing" textLength="80.4111" x="304.874" y="93.292">Semaphore</text><text fill="#000000" font-family="sans-serif" font-size="14" lengthAdjust="spacing" textLength="103.0518" x="293.5537" y="109.5889">(control plane)</text><rect fill="#E2E2F0" height="46.5938" rx="2.5" ry="2.5" style="stroke:#181818;stroke-width:0.5;" width="117.0518" x="286.5537" y="1292.6016"/><text fill="#000000" font-family="sans-serif" font-size="14" lengthAdjust="spacing" textLength="80.4111" x="304.874" y="1312.5967">Semaphore</text><text fill="#000000" font-family="sans-serif" font-size="14" lengthAdjust="spacing" textLength="103.0518" x="293.5537" y="1328.8936">(control plane)</text><text fill="#000000" font-family="sans-serif" font-size="14" lengthAdjust="spacing" textLength="67.8398" x="566.9214" y="101.292">Key Store</text><text fill="#000000" font-family="sans-serif" font-size="14" lengthAdjust="spacing" textLength="91.1094" x="555.2866" y="117.5889">vps-fleet-key</text><path d="M585.8413,52.2969 C585.8413,42.2969 603.8413,42.2969 603.8413,42.2969 C603.8413,42.2969 621.8413,42.2969 621.8413,52.2969 L621.8413,78.2969 C621.8413,88.2969 603.8413,88.2969 603.8413,88.2969 C603.8413,88.2969 585.8413,88.2969 585.8413,78.2969 L585.8413,52.2969 " fill="#E2E2F0" style="stroke:#181818;stroke-width:1.5;"/><path d="M585.8413,52.2969 C585.8413,62.2969 603.8413,62.2969 603.8413,62.2969 C603.8413,62.2969 621.8413,62.2969 621.8413,52.2969 " fill="none" style="stroke:#181818;stroke-width:1.5;"/><text fill="#000000" font-family="sans-serif" font-size="14" lengthAdjust="spacing" textLength="67.8398" x="566.9214" y="1305.5967">Key Store</text><text fill="#000000" font-family="sans-serif" font-size="14" lengthAdjust="spacing" textLength="91.1094" x="555.2866" y="1321.8936">vps-fleet-key</text><path d="M585.8413,1335.1953 C585.8413,1325.1953 603.8413,1325.1953 603.8413,1325.1953 C603.8413,1325.1953 621.8413,1325.1953 621.8413,1335.1953 L621.8413,1361.1953 C621.8413,1371.1953 603.8413,1371.1953 603.8413,1371.1953 C603.8413,1371.1953 585.8413,1371.1953 585.8413,1361.1953 L585.8413,1335.1953 " fill="#E2E2F0" style="stroke:#181818;stroke-width:1.5;"/><path d="M585.8413,1335.1953 C585.8413,1345.1953 603.8413,1345.1953 603.8413,1345.1953 C603.8413,1345.1953 621.8413,1345.1953 621.8413,1335.1953 " fill="none" style="stroke:#181818;stroke-width:1.5;"/><rect fill="#E2E2F0" height="46.5938" rx="2.5" ry="2.5" style="stroke:#181818;stroke-width:0.5;" width="179.1016" x="662.396" y="73.2969"/><text fill="#000000" font-family="sans-serif" font-size="14" lengthAdjust="spacing" textLength="118.8428" x="692.5254" y="93.292">ansible-playbook</text><text fill="#000000" font-family="sans-serif" font-size="14" lengthAdjust="spacing" textLength="165.1016" x="669.396" y="109.5889">(in container, uid 1001)</text><rect fill="#E2E2F0" height="46.5938" rx="2.5" ry="2.5" style="stroke:#181818;stroke-width:0.5;" width="179.1016" x="662.396" y="1292.6016"/><text fill="#000000" font-family="sans-serif" font-size="14" lengthAdjust="spacing" textLength="118.8428" x="692.5254" y="1312.5967">ansible-playbook</text><text fill="#000000" font-family="sans-serif" font-size="14" lengthAdjust="spacing" textLength="165.1016" x="669.396" y="1328.8936">(in container, uid 1001)</text><rect fill="#E2E2F0" height="46.5938" rx="2.5" ry="2.5" style="stroke:#181818;stroke-width:0.5;" width="150.8691" x="1018.0581" y="73.2969"/><text fill="#000000" font-family="sans-serif" font-size="14" lengthAdjust="spacing" textLength="77.2324" x="1054.8765" y="93.292">Target VPS</text><text fill="#000000" font-family="sans-serif" font-size="14" lengthAdjust="spacing" textLength="136.8691" x="1025.0581" y="109.5889">bootstrap: root@22</text><rect fill="#E2E2F0" height="46.5938" rx="2.5" ry="2.5" style="stroke:#181818;stroke-width:0.5;" width="150.8691" x="1018.0581" y="1292.6016"/><text fill="#000000" font-family="sans-serif" font-size="14" lengthAdjust="spacing" textLength="77.2324" x="1054.8765" y="1312.5967">Target VPS</text><text fill="#000000" font-family="sans-serif" font-size="14" lengthAdjust="spacing" textLength="136.8691" x="1025.0581" y="1328.8936">bootstrap: root@22</text><rect fill="#E2E2F0" height="46.5938" rx="2.5" ry="2.5" style="stroke:#181818;stroke-width:0.5;" width="178.2949" x="1178.9272" y="73.2969"/><text fill="#000000" font-family="sans-serif" font-size="14" lengthAdjust="spacing" textLength="77.2324" x="1229.4585" y="93.292">Target VPS</text><text fill="#000000" font-family="sans-serif" font-size="14" lengthAdjust="spacing" textLength="164.2949" x="1185.9272" y="109.5889">managed: user@39222</text><rect fill="#E2E2F0" height="46.5938" rx="2.5" ry="2.5" style="stroke:#181818;stroke-width:0.5;" width="178.2949" x="1178.9272" y="1292.6016"/><text fill="#000000" font-family="sans-serif" font-size="14" lengthAdjust="spacing" textLength="77.2324" x="1229.4585" y="1312.5967">Target VPS</text><text fill="#000000" font-family="sans-serif" font-size="14" lengthAdjust="spacing" textLength="164.2949" x="1185.9272" y="1328.8936">managed: user@39222</text><rect fill="#E2E2F0" height="30.2969" rx="2.5" ry="2.5" style="stroke:#181818;stroke-width:0.5;" width="205.2695" x="1367.2222" y="89.5938"/><text fill="#000000" font-family="sans-serif" font-size="14" lengthAdjust="spacing" textLength="191.2695" x="1374.2222" y="109.5889">make controller-vps-smoke</text><rect fill="#E2E2F0" height="30.2969" rx="2.5" ry="2.5" style="stroke:#181818;stroke-width:0.5;" width="205.2695" x="1367.2222" y="1292.6016"/><text fill="#000000" font-family="sans-serif" font-size="14" lengthAdjust="spacing" textLength="191.2695" x="1374.2222" y="1312.5967">make controller-vps-smoke</text><rect fill="#FFFFFF" height="308.7266" style="stroke:#181818;stroke-width:1.0;" width="10" x="746.9468" y="450.4844"/><rect fill="#FFFFFF" height="87.3984" style="stroke:#181818;stroke-width:1.0;" width="10" x="746.9468" y="977.1406"/><rect fill="#EEEEEE" height="3" style="stroke:#EEEEEE;stroke-width:1.0;" width="1577.4917" x="0" y="151.457"/><line style="stroke:#000000;stroke-width:1.0;" x1="0" x2="1577.4917" y1="151.457" y2="151.457"/><line style="stroke:#000000;stroke-width:1.0;" x1="0" x2="1577.4917" y1="154.457" y2="154.457"/><rect fill="#EEEEEE" height="23.1328" style="stroke:#000000;stroke-width:2.0;" width="263.0757" x="657.208" y="140.8906"/><text fill="#000000" font-family="sans-serif" font-size="13" font-weight="bold" lengthAdjust="spacing" textLength="244.5498" x="663.208" y="156.9575">Prerequisite (one-time, per fleet)</text><polygon fill="#181818" points="333.0796,191.1563,343.0796,195.1563,333.0796,199.1563,337.0796,195.1563" style="stroke:#181818;stroke-width:1.0;"/><line style="stroke:#181818;stroke-width:1.0;" x1="39.3325" x2="339.0796" y1="195.1563" y2="195.1563"/><text fill="#000000" font-family="sans-serif" font-size="13" lengthAdjust="spacing" textLength="228.7188" x="77.8467" y="190.0903">inject fleet private key &#8594; Key Store</text><polygon fill="#181818" points="333.0796,235.4219,343.0796,239.4219,333.0796,243.4219,337.0796,239.4219" style="stroke:#181818;stroke-width:1.0;"/><line style="stroke:#181818;stroke-width:1.0;" x1="39.3325" x2="339.0796" y1="239.4219" y2="239.4219"/><text fill="#000000" font-family="sans-serif" font-size="13" lengthAdjust="spacing" textLength="204.8389" x="89.7866" y="219.2231">add host to vps-fleet (root@22)</text><text fill="#000000" font-family="sans-serif" font-size="13" lengthAdjust="spacing" textLength="215.0269" x="84.6926" y="234.356">fleet public key trusted on target</text><path d="M350,252.4219 L350,292.4219 L636,292.4219 L636,262.4219 L626,252.4219 L350,252.4219 " fill="#FEFFDD" style="stroke:#181818;stroke-width:0.5;"/><path d="M626,252.4219 L626,262.4219 L636,262.4219 L626,252.4219 " fill="#FEFFDD" style="stroke:#181818;stroke-width:0.5;"/><text fill="#000000" font-family="sans-serif" font-size="13" lengthAdjust="spacing" textLength="213.5034" x="356" y="269.4888">templates bound to env carrying</text><text fill="#000000" font-family="sans-serif" font-size="13" lengthAdjust="spacing" textLength="265.2305" x="356" y="284.6216">ANSIBLE_CONFIG (vault-free) + vps_task</text><rect fill="#EEEEEE" height="3" style="stroke:#EEEEEE;stroke-width:1.0;" width="1577.4917" x="0" y="318.2539"/><line style="stroke:#000000;stroke-width:1.0;" x1="0" x2="1577.4917" y1="318.2539" y2="318.2539"/><line style="stroke:#000000;stroke-width:1.0;" x1="0" x2="1577.4917" y1="321.2539" y2="321.2539"/><rect fill="#EEEEEE" height="23.1328" style="stroke:#000000;stroke-width:2.0;" width="244.2485" x="666.6216" y="307.6875"/><text fill="#000000" font-family="sans-serif" font-size="13" font-weight="bold" lengthAdjust="spacing" textLength="225.7227" x="672.6216" y="323.7544">Phase 2/3: Onboard (takeover)</text><polygon fill="#181818" points="333.0796,357.9531,343.0796,361.9531,333.0796,365.9531,337.0796,361.9531" style="stroke:#181818;stroke-width:1.0;"/><line style="stroke:#181818;stroke-width:1.0;" x1="39.3325" x2="339.0796" y1="361.9531" y2="361.9531"/><text fill="#000000" font-family="sans-serif" font-size="13" lengthAdjust="spacing" textLength="25.5112" x="75.5996" y="356.8872">Run</text><text fill="#000000" font-family="sans-serif" font-size="13" font-weight="bold" lengthAdjust="spacing" textLength="96.5098" x="105.2432" y="356.8872">VPS Onboard</text><text fill="#000000" font-family="sans-serif" font-size="13" lengthAdjust="spacing" textLength="98.7949" x="210.0176" y="356.8872">(strategy: free)</text><polygon fill="#181818" points="591.8413,387.0859,601.8413,391.0859,591.8413,395.0859,595.8413,391.0859" style="stroke:#181818;stroke-width:1.0;"/><line style="stroke:#181818;stroke-width:1.0;" x1="345.0796" x2="597.8413" y1="391.0859" y2="391.0859"/><text fill="#000000" font-family="sans-serif" font-size="13" lengthAdjust="spacing" textLength="234.7617" x="357.0796" y="386.02">materialize key (transient temp file)</text><polygon fill="#181818" points="734.9468,446.4844,744.9468,450.4844,734.9468,454.4844,738.9468,450.4844" style="stroke:#181818;stroke-width:1.0;"/><line style="stroke:#181818;stroke-width:1.0;" x1="345.0796" x2="740.9468" y1="450.4844" y2="450.4844"/><text fill="#000000" font-family="sans-serif" font-size="13" lengthAdjust="spacing" textLength="117.0317" x="487.4973" y="415.1528">exec onboard.yml</text><text fill="#000000" font-family="sans-serif" font-size="13" lengthAdjust="spacing" textLength="376.2954" x="357.8655" y="430.2856">(bound Environment injects vps_task + ANSIBLE_CONFIG;</text><text fill="#000000" font-family="sans-serif" font-size="13" lengthAdjust="spacing" textLength="213.0972" x="439.4646" y="445.4185">Key Store supplies --private-key)</text><polygon fill="#181818" points="1081.4927,475.6172,1091.4927,479.6172,1081.4927,483.6172,1085.4927,479.6172" style="stroke:#181818;stroke-width:1.0;"/><line style="stroke:#181818;stroke-width:1.0;" x1="756.9468" x2="1087.4927" y1="479.6172" y2="479.6172"/><text fill="#000000" font-family="sans-serif" font-size="13" lengthAdjust="spacing" textLength="188.811" x="830.8142" y="474.5513">connect root@22 (bootstrap)</text><polygon fill="#181818" points="1081.4927,504.75,1091.4927,508.75,1081.4927,512.75,1085.4927,508.75" style="stroke:#181818;stroke-width:1.0;"/><line style="stroke:#181818;stroke-width:1.0;" x1="756.9468" x2="1087.4927" y1="508.75" y2="508.75"/><text fill="#000000" font-family="sans-serif" font-size="13" lengthAdjust="spacing" textLength="312.5459" x="768.9468" y="503.6841">packages; EPEL+fail2ban (RHEL); UFW (Debian)</text><polygon fill="#181818" points="1081.4927,549.0156,1091.4927,553.0156,1081.4927,557.0156,1085.4927,553.0156" style="stroke:#181818;stroke-width:1.0;"/><line style="stroke:#181818;stroke-width:1.0;" x1="756.9468" x2="1087.4927" y1="553.0156" y2="553.0156"/><text fill="#000000" font-family="sans-serif" font-size="13" lengthAdjust="spacing" textLength="264.6846" x="792.8774" y="532.8169">create managed user + authorized_keys</text><text fill="#000000" font-family="sans-serif" font-size="13" lengthAdjust="spacing" textLength="5.0718" x="780.2329" y="547.9497">(</text><text fill="#000000" font-family="sans-serif" font-size="13" font-weight="bold" lengthAdjust="spacing" textLength="139.8135" x="785.3047" y="547.9497">public_key_content</text><text fill="#000000" font-family="sans-serif" font-size="13" lengthAdjust="spacing" textLength="140.9561" x="929.2505" y="547.9497">= fleet pubkey), sudo</text><polygon fill="#181818" points="1081.4927,593.2813,1091.4927,597.2813,1081.4927,601.2813,1085.4927,597.2813" style="stroke:#181818;stroke-width:1.0;"/><line style="stroke:#181818;stroke-width:1.0;" x1="756.9468" x2="1087.4927" y1="597.2813" y2="597.2813"/><text fill="#000000" font-family="sans-serif" font-size="13" lengthAdjust="spacing" textLength="238.9639" x="805.7378" y="577.0825">install sshd drop-in &#8594; managed port,</text><text fill="#000000" font-family="sans-serif" font-size="13" lengthAdjust="spacing" textLength="289.3579" x="780.5408" y="592.2153">reload sshd  (transitional: 22 + 39222 open)</text><polygon fill="#181818" points="1256.0747,652.6797,1266.0747,656.6797,1256.0747,660.6797,1260.0747,656.6797" style="stroke:#181818;stroke-width:1.0;"/><line style="stroke:#181818;stroke-width:1.0;" x1="756.9468" x2="1262.0747" y1="656.6797" y2="656.6797"/><text fill="#000000" font-family="sans-serif" font-size="13" font-weight="bold" lengthAdjust="spacing" textLength="208.3047" x="908.3584" y="621.3481">managed-channel validation</text><text fill="#000000" font-family="sans-serif" font-size="13" lengthAdjust="spacing" textLength="241.5918" x="891.7148" y="636.481">(task-level ansible_user/ansible_port,</text><text fill="#000000" font-family="sans-serif" font-size="13" lengthAdjust="spacing" textLength="254.5093" x="885.2561" y="651.6138">reuse the run's key &#8212; no mounted file)</text><polygon fill="#181818" points="767.9468,681.8125,757.9468,685.8125,767.9468,689.8125,763.9468,685.8125" style="stroke:#181818;stroke-width:1.0;"/><line style="stroke:#181818;stroke-width:1.0;stroke-dasharray:2.0,2.0;" x1="761.9468" x2="1267.0747" y1="685.8125" y2="685.8125"/><text fill="#000000" font-family="sans-serif" font-size="13" lengthAdjust="spacing" textLength="106.1138" x="959.4539" y="680.7466">sudo -n true  OK</text><polygon fill="#181818" points="1081.4927,726.0781,1091.4927,730.0781,1081.4927,734.0781,1085.4927,730.0781" style="stroke:#181818;stroke-width:1.0;"/><line style="stroke:#181818;stroke-width:1.0;" x1="756.9468" x2="1087.4927" y1="730.0781" y2="730.0781"/><text fill="#000000" font-family="sans-serif" font-size="13" lengthAdjust="spacing" textLength="127.626" x="861.4067" y="709.8794">final lockdown sshd</text><text fill="#000000" font-family="sans-serif" font-size="13" lengthAdjust="spacing" textLength="246.6191" x="801.9102" y="725.0122">(disable root/password), close port 22</text><polygon fill="#181818" points="1256.0747,755.2109,1266.0747,759.2109,1256.0747,763.2109,1260.0747,759.2109" style="stroke:#181818;stroke-width:1.0;"/><line style="stroke:#181818;stroke-width:1.0;" x1="751.9468" x2="1262.0747" y1="759.2109" y2="759.2109"/><text fill="#000000" font-family="sans-serif" font-size="13" lengthAdjust="spacing" textLength="152.166" x="933.9277" y="754.145">final managed login OK</text><polygon fill="#181818" points="50.3325,799.4766,40.3325,803.4766,50.3325,807.4766,46.3325,803.4766" style="stroke:#181818;stroke-width:1.0;"/><line style="stroke:#181818;stroke-width:1.0;stroke-dasharray:2.0,2.0;" x1="44.3325" x2="344.0796" y1="803.4766" y2="803.4766"/><text fill="#000000" font-family="sans-serif" font-size="13" lengthAdjust="spacing" textLength="141.4512" x="121.4805" y="783.2778">task status = success</text><text fill="#000000" font-family="sans-serif" font-size="13" lengthAdjust="spacing" textLength="208.5015" x="87.9553" y="798.4106">(tcp/22 closed, tcp/39222 open)</text><rect fill="#EEEEEE" height="3" style="stroke:#EEEEEE;stroke-width:1.0;" width="1577.4917" x="0" y="832.043"/><line style="stroke:#000000;stroke-width:1.0;" x1="0" x2="1577.4917" y1="832.043" y2="832.043"/><line style="stroke:#000000;stroke-width:1.0;" x1="0" x2="1577.4917" y1="835.043" y2="835.043"/><rect fill="#EEEEEE" height="23.1328" style="stroke:#000000;stroke-width:2.0;" width="272.3623" x="652.5647" y="821.4766"/><text fill="#000000" font-family="sans-serif" font-size="13" font-weight="bold" lengthAdjust="spacing" textLength="253.8364" x="658.5647" y="837.5435">Cut inventory to managed channel</text><polygon fill="#181818" points="333.0796,871.7422,343.0796,875.7422,333.0796,879.7422,337.0796,875.7422" style="stroke:#181818;stroke-width:1.0;"/><line style="stroke:#181818;stroke-width:1.0;" x1="39.3325" x2="339.0796" y1="875.7422" y2="875.7422"/><text fill="#000000" font-family="sans-serif" font-size="13" lengthAdjust="spacing" textLength="234.6602" x="74.876" y="870.6763">vps-fleet &#8594; managed_user @ 39222</text><rect fill="#EEEEEE" height="3" style="stroke:#EEEEEE;stroke-width:1.0;" width="1577.4917" x="0" y="904.3086"/><line style="stroke:#000000;stroke-width:1.0;" x1="0" x2="1577.4917" y1="904.3086" y2="904.3086"/><line style="stroke:#000000;stroke-width:1.0;" x1="0" x2="1577.4917" y1="907.3086" y2="907.3086"/><rect fill="#EEEEEE" height="23.1328" style="stroke:#000000;stroke-width:2.0;" width="358.5825" x="609.4546" y="893.7422"/><text fill="#000000" font-family="sans-serif" font-size="13" font-weight="bold" lengthAdjust="spacing" textLength="340.0566" x="615.4546" y="909.8091">Phase 3 gate: Re-Audit over managed channel</text><polygon fill="#181818" points="333.0796,944.0078,343.0796,948.0078,333.0796,952.0078,337.0796,948.0078" style="stroke:#181818;stroke-width:1.0;"/><line style="stroke:#181818;stroke-width:1.0;" x1="39.3325" x2="339.0796" y1="948.0078" y2="948.0078"/><text fill="#000000" font-family="sans-serif" font-size="13" lengthAdjust="spacing" textLength="25.5112" x="140.9995" y="942.9419">Run</text><text fill="#000000" font-family="sans-serif" font-size="13" font-weight="bold" lengthAdjust="spacing" textLength="72.7695" x="170.6431" y="942.9419">VPS Audit</text><polygon fill="#181818" points="734.9468,973.1406,744.9468,977.1406,734.9468,981.1406,738.9468,977.1406" style="stroke:#181818;stroke-width:1.0;"/><line style="stroke:#181818;stroke-width:1.0;" x1="345.0796" x2="740.9468" y1="977.1406" y2="977.1406"/><text fill="#000000" font-family="sans-serif" font-size="13" lengthAdjust="spacing" textLength="237.853" x="427.0867" y="972.0747">exec audit.yml (managed inventory)</text><polygon fill="#181818" points="1256.0747,1002.2734,1266.0747,1006.2734,1256.0747,1010.2734,1260.0747,1006.2734" style="stroke:#181818;stroke-width:1.0;"/><line style="stroke:#181818;stroke-width:1.0;" x1="756.9468" x2="1262.0747" y1="1006.2734" y2="1006.2734"/><text fill="#000000" font-family="sans-serif" font-size="13" lengthAdjust="spacing" textLength="251.9956" x="886.5129" y="1001.2075">connect managed_user@39222 (sudo)</text><polygon fill="#181818" points="1256.0747,1031.4063,1266.0747,1035.4063,1256.0747,1039.4063,1260.0747,1035.4063" style="stroke:#181818;stroke-width:1.0;"/><line style="stroke:#181818;stroke-width:1.0;" x1="756.9468" x2="1262.0747" y1="1035.4063" y2="1035.4063"/><text fill="#000000" font-family="sans-serif" font-size="13" lengthAdjust="spacing" textLength="331.0874" x="846.967" y="1030.3403">disk / memory / failed-services / reboot (read-only)</text><polygon fill="#181818" points="762.9468,1060.5391,752.9468,1064.5391,762.9468,1068.5391,758.9468,1064.5391" style="stroke:#181818;stroke-width:1.0;"/><line style="stroke:#181818;stroke-width:1.0;stroke-dasharray:2.0,2.0;" x1="756.9468" x2="1267.0747" y1="1064.5391" y2="1064.5391"/><text fill="#000000" font-family="sans-serif" font-size="13" lengthAdjust="spacing" textLength="31.5605" x="994.2305" y="1059.4731">facts</text><polygon fill="#181818" points="50.3325,1089.6719,40.3325,1093.6719,50.3325,1097.6719,46.3325,1093.6719" style="stroke:#181818;stroke-width:1.0;"/><line style="stroke:#181818;stroke-width:1.0;stroke-dasharray:2.0,2.0;" x1="44.3325" x2="344.0796" y1="1093.6719" y2="1093.6719"/><text fill="#000000" font-family="sans-serif" font-size="13" lengthAdjust="spacing" textLength="105.8218" x="51.3325" y="1088.606">status=success,</text><text fill="#000000" font-family="sans-serif" font-size="13" font-weight="bold" lengthAdjust="spacing" textLength="82.3545" x="161.2866" y="1088.606">changed=0</text><text fill="#000000" font-family="sans-serif" font-size="13" lengthAdjust="spacing" textLength="85.3062" x="247.7734" y="1088.606">(idempotent)</text><rect fill="#EEEEEE" height="3" style="stroke:#EEEEEE;stroke-width:1.0;" width="1577.4917" x="0" y="1122.2383"/><line style="stroke:#000000;stroke-width:1.0;" x1="0" x2="1577.4917" y1="1122.2383" y2="1122.2383"/><line style="stroke:#000000;stroke-width:1.0;" x1="0" x2="1577.4917" y1="1125.2383" y2="1125.2383"/><rect fill="#EEEEEE" height="23.1328" style="stroke:#000000;stroke-width:2.0;" width="104.1621" x="736.6648" y="1111.6719"/><text fill="#000000" font-family="sans-serif" font-size="13" font-weight="bold" lengthAdjust="spacing" textLength="85.6362" x="742.6648" y="1127.7388">Automation</text><polygon fill="#181818" points="356.0796,1177.0703,346.0796,1181.0703,356.0796,1185.0703,352.0796,1181.0703" style="stroke:#181818;stroke-width:1.0;"/><line style="stroke:#181818;stroke-width:1.0;" x1="350.0796" x2="1468.8569" y1="1181.0703" y2="1181.0703"/><text fill="#000000" font-family="sans-serif" font-size="13" lengthAdjust="spacing" textLength="176.3506" x="819.293" y="1160.8716">trigger VPS Audit via REST,</text><text fill="#000000" font-family="sans-serif" font-size="13" lengthAdjust="spacing" textLength="257.1753" x="778.8806" y="1176.0044">assert success + changed=0 / failed=0</text><polygon fill="#181818" points="1457.8569,1206.2031,1467.8569,1210.2031,1457.8569,1214.2031,1461.8569,1210.2031" style="stroke:#181818;stroke-width:1.0;"/><line style="stroke:#181818;stroke-width:1.0;stroke-dasharray:2.0,2.0;" x1="345.0796" x2="1463.8569" y1="1210.2031" y2="1210.2031"/><text fill="#000000" font-family="sans-serif" font-size="13" lengthAdjust="spacing" textLength="33.2363" x="890.8501" y="1205.1372">PASS</text><path d="M984,1223.2031 L984,1278.2031 L1376,1278.2031 L1376,1233.2031 L1366,1223.2031 L984,1223.2031 " fill="#FEFFDD" style="stroke:#181818;stroke-width:0.5;"/><path d="M1366,1223.2031 L1366,1233.2031 L1376,1233.2031 L1366,1223.2031 " fill="#FEFFDD" style="stroke:#181818;stroke-width:0.5;"/><text fill="#000000" font-family="sans-serif" font-size="13" lengthAdjust="spacing" textLength="368.3354" x="990" y="1240.27">Recovery: onboard has no auto-rollback &#8212; the managed</text><text fill="#000000" font-family="sans-serif" font-size="13" lengthAdjust="spacing" textLength="371.4966" x="990" y="1255.4028">validation runs BEFORE the bootstrap port is closed, so a</text><text fill="#000000" font-family="sans-serif" font-size="13" lengthAdjust="spacing" textLength="354.561" x="990" y="1270.5356">failure leaves root@22 open and the host re-runnable.</text><!--SRC=[XLNBSjis5DthA-vaKqaHOyTPLHbrx2Hocd4SUIottNZ60v5N4YeGO05GgRhggX_GwHVcItekI56schOxFd1Vvt4HTJHCSxLWNzEFDtEwKnjsM_RqvVU_Q6ONJlc2llpn9rqhgrRSFDzoTb4NEgP3TnUtxwTtr5SXApZebULYq0iRRIlbLKbXhGhtMTiLBPK9_FWF_rAppVcQGq3g2uDOojb6zhsUogFpDAlOAtbGWMOtFSH5dUjAsKZFvbogQkqytzj-xcpqpb1bbEN1Cpa-drxt2XNLGWMcPrUyetbCXxTLo9Q6EMORtgMZL_EdcPKDUc4uGxRTmhaD2cXqXXfAM_OZgdL1BqzFNpQLBZuTnTyfl-8eSDu3G1T3zAeQayVZ-TbPYdapcztzUr3PO3scEh0_V_NjMHjr_VxTqw0IR54xl66VoMoXT1jk8BYUNKrxlSc4RZnxeAs3ZanzPpcBkkGH0LvAM0neCkdDRYZxJe2ZCMdxC-Un-KcLrrk5I02M-E_GV1AYYeBMBaIAZZgGgT-EFRYtRR9wONIUSaLVXmXDEKinZT-p3cMyNgqZkMMRDt899Y87MhZQ5fAUxPPovVqEkhgt8E33cu_JXxUpJvSVtbD_gseJiwLd7j1pQUKXgh1fW5YB7CvENeqxSVTZA_b_O71RMneEnHNjsU6Gg2ziHbxjnfGgzEGiGgxcY2Znnsjbz6yDM7sSXPYWwJG5BRKvHA1jXF2ld0E0bF_5hZGGMpFcr6wrTxQKu8QDqCs2iPuE_VhUTgHGgAlAQE2LPIrp8lM1UAhXKHGhrT64215TG4DM-6x9edwdsy7HoKhb6uWplARfpVJZywNIvcoXBFLllvz-7Boc7ov_eluxNcXbZqDpprAzLNSIDmPHTOIBWLZnW2u3vXyE6ut8-uEe6n00-Wbr0f9nHfYpS4Sbj0rH6KCXh0iglAioE5SakozQEHz7zzQpSQfeZkrPYjfPPSQ4yPzJCXsvYWzJm7seC1osgR9yhG2QeItungP1z728xeMVpF0MVzf5yY2JdknVkWxmbU8QSg_jDw7n5jQfTLI2Vx55enOfctLoaPafis8T9ffT7Ss_r1Y1ZCitMBespOUM2XqKIYTsJoeLmcVd2m2O6uSUf24C_NJC9j4UDUDMm17L2duYegHanC0ryAa84_37Ee2hKESv5hi0abSdm38LAqOahu_H5Lk-hKNZM_3i_4uClY-yn_Z8cOVryeZR13ETDzGzSlihMg7VyU7MIlVR_rGuU3_538TVSQsIF-9Pwk-pTKDytMqDjdkpFUwxsVBOBk3tI75WRqCdL78fu9oGM0xoGz1M0s9yyInsnQfbLMJEcjsnQfPe9lmdUGrlavQr4MONOD3Tv1JMw-i2wyk94Hl2BkheogHv0IvTD0Vi8XRu2X1twD5MAxgTpk-WUwYFeRUs49pMrUb6cvnslJMPntHpCP_tcjiXiITo7wNxaC1hBj-maDirIg1TV8JDuZAv6HVOMSbSOhSMTGGUZ2iUnAKylPpTJjEXRlqrxj2Xasz0NiHAfpLshM6r1GVxlIcIXksBb2HTXfup9BVYlnSznXyPucy0]--></g></svg>